<svg xmlns="http://www.w3.org/2000/svg" viewBox="0 0 1400 200" preserveAspectRatio="xMidYMax slice">
  <!-- Background buildings (gray) -->
  <g fill="#999">
    <!-- Far background buildings -->
    <rect x="0" y="80" width="60" height="120"/>
    <rect x="70" y="60" width="50" height="140"/>
    <rect x="130" y="90" width="45" height="110"/>
    <rect x="200" y="70" width="55" height="130"/>
    <rect x="280" y="85" width="40" height="115"/>
    <rect x="350" y="65" width="50" height="135"/>
    <rect x="420" y="95" width="45" height="105"/>
    <rect x="500" y="75" width="55" height="125"/>
    <rect x="580" y="88" width="42" height="112"/>
    <rect x="650" y="72" width="48" height="128"/>
    <rect x="720" y="82" width="52" height="118"/>
    <rect x="800" y="68" width="46" height="132"/>
    <rect x="870" y="92" width="44" height="108"/>
    <rect x="940" y="78" width="50" height="122"/>
    <rect x="1020" y="86" width="48" height="114"/>
    <rect x="1090" y="70" width="54" height="130"/>
    <rect x="1160" y="90" width="42" height="110"/>
    <rect x="1220" y="76" width="56" height="124"/>
    <rect x="1300" y="84" width="50" height="116"/>
    <rect x="1360" y="74" width="40" height="126"/>
  </g>

  <!-- Mid buildings (darker gray) -->
  <g fill="#666">
    <rect x="20" y="100" width="70" height="100"/>
    <rect x="110" y="85" width="55" height="115"/>
    <rect x="240" y="95" width="60" height="105"/>
    <rect x="380" y="80" width="50" height="120"/>
    <rect x="460" y="100" width="65" height="100"/>
    <rect x="560" y="90" width="55" height="110"/>
    <rect x="680" y="85" width="60" height="115"/>
    <rect x="780" y="95" width="50" height="105"/>
    <rect x="900" y="88" width="58" height="112"/>
    <rect x="1000" y="92" width="52" height="108"/>
    <rect x="1120" y="82" width="62" height="118"/>
    <rect x="1250" y="96" width="48" height="104"/>
    <rect x="1330" y="90" width="70" height="110"/>
  </g>

  <!-- Foreground buildings (black) -->
  <g fill="#000">
    <!-- Tall building with windows left -->
    <rect x="50" y="50" width="45" height="150"/>
    <g fill="#fff" opacity="0.3">
      <rect x="55" y="55" width="8" height="12"/><rect x="67" y="55" width="8" height="12"/><rect x="79" y="55" width="8" height="12"/>
      <rect x="55" y="72" width="8" height="12"/><rect x="67" y="72" width="8" height="12"/><rect x="79" y="72" width="8" height="12"/>
      <rect x="55" y="89" width="8" height="12"/><rect x="67" y="89" width="8" height="12"/><rect x="79" y="89" width="8" height="12"/>
      <rect x="55" y="106" width="8" height="12"/><rect x="67" y="106" width="8" height="12"/><rect x="79" y="106" width="8" height="12"/>
      <rect x="55" y="123" width="8" height="12"/><rect x="67" y="123" width="8" height="12"/><rect x="79" y="123" width="8" height="12"/>
      <rect x="55" y="140" width="8" height="12"/><rect x="67" y="140" width="8" height="12"/><rect x="79" y="140" width="8" height="12"/>
      <rect x="55" y="157" width="8" height="12"/><rect x="67" y="157" width="8" height="12"/><rect x="79" y="157" width="8" height="12"/>
      <rect x="55" y="174" width="8" height="12"/><rect x="67" y="174" width="8" height="12"/><rect x="79" y="174" width="8" height="12"/>
    </g>

    <!-- Tokyo Tower -->
    <polygon points="180,200 160,200 165,120 175,50 185,50 195,120 200,200"/>
    <polygon points="175,50 185,50 180,10"/>
    <rect x="162" y="100" width="36" height="8"/>
    <rect x="158" y="130" width="44" height="8"/>
    <rect x="155" y="160" width="50" height="8"/>

    <!-- Temple/Shrine -->
    <rect x="320" y="140" width="120" height="60"/>
    <polygon points="310,140 380,100 450,140"/>
    <rect x="360" y="155" width="30" height="45"/>

    <!-- Tall tower with windows -->
    <rect x="500" y="40" width="50" height="160"/>
    <g fill="#fff" opacity="0.3">
      <rect x="505" y="45" width="8" height="12"/><rect x="518" y="45" width="8" height="12"/><rect x="531" y="45" width="8" height="12"/>
      <rect x="505" y="62" width="8" height="12"/><rect x="518" y="62" width="8" height="12"/><rect x="531" y="62" width="8" height="12"/>
      <rect x="505" y="79" width="8" height="12"/><rect x="518" y="79" width="8" height="12"/><rect x="531" y="79" width="8" height="12"/>
      <rect x="505" y="96" width="8" height="12"/><rect x="518" y="96" width="8" height="12"/><rect x="531" y="96" width="8" height="12"/>
      <rect x="505" y="113" width="8" height="12"/><rect x="518" y="113" width="8" height="12"/><rect x="531" y="113" width="8" height="12"/>
      <rect x="505" y="130" width="8" height="12"/><rect x="518" y="130" width="8" height="12"/><rect x="531" y="130" width="8" height="12"/>
      <rect x="505" y="147" width="8" height="12"/><rect x="518" y="147" width="8" height="12"/><rect x="531" y="147" width="8" height="12"/>
      <rect x="505" y="164" width="8" height="12"/><rect x="518" y="164" width="8" height="12"/><rect x="531" y="164" width="8" height="12"/>
    </g>

    <!-- Skytree-like tower -->
    <polygon points="640,200 630,200 635,80 645,30 655,30 665,80 670,200"/>
    <polygon points="645,30 655,30 650,5"/>
    <ellipse cx="650" cy="70" rx="20" ry="8"/>

    <!-- More tall buildings with windows -->
    <rect x="720" y="55" width="45" height="145"/>
    <g fill="#fff" opacity="0.3">
      <rect x="725" y="60" width="8" height="12"/><rect x="737" y="60" width="8" height="12"/><rect x="749" y="60" width="8" height="12"/>
      <rect x="725" y="77" width="8" height="12"/><rect x="737" y="77" width="8" height="12"/><rect x="749" y="77" width="8" height="12"/>
      <rect x="725" y="94" width="8" height="12"/><rect x="737" y="94" width="8" height="12"/><rect x="749" y="94" width="8" height="12"/>
      <rect x="725" y="111" width="8" height="12"/><rect x="737" y="111" width="8" height="12"/><rect x="749" y="111" width="8" height="12"/>
      <rect x="725" y="128" width="8" height="12"/><rect x="737" y="128" width="8" height="12"/><rect x="749" y="128" width="8" height="12"/>
      <rect x="725" y="145" width="8" height="12"/><rect x="737" y="145" width="8" height="12"/><rect x="749" y="145" width="8" height="12"/>
      <rect x="725" y="162" width="8" height="12"/><rect x="737" y="162" width="8" height="12"/><rect x="749" y="162" width="8" height="12"/>
    </g>

    <rect x="800" y="70" width="40" height="130"/>
    <g fill="#fff" opacity="0.3">
      <rect x="805" y="75" width="7" height="10"/><rect x="816" y="75" width="7" height="10"/><rect x="827" y="75" width="7" height="10"/>
      <rect x="805" y="90" width="7" height="10"/><rect x="816" y="90" width="7" height="10"/><rect x="827" y="90" width="7" height="10"/>
      <rect x="805" y="105" width="7" height="10"/><rect x="816" y="105" width="7" height="10"/><rect x="827" y="105" width="7" height="10"/>
      <rect x="805" y="120" width="7" height="10"/><rect x="816" y="120" width="7" height="10"/><rect x="827" y="120" width="7" height="10"/>
      <rect x="805" y="135" width="7" height="10"/><rect x="816" y="135" width="7" height="10"/><rect x="827" y="135" width="7" height="10"/>
      <rect x="805" y="150" width="7" height="10"/><rect x="816" y="150" width="7" height="10"/><rect x="827" y="150" width="7" height="10"/>
      <rect x="805" y="165" width="7" height="10"/><rect x="816" y="165" width="7" height="10"/><rect x="827" y="165" width="7" height="10"/>
    </g>

    <!-- Triangular building -->
    <polygon points="880,200 880,80 920,40 960,80 960,200"/>

    <!-- More buildings -->
    <rect x="1000" y="60" width="50" height="140"/>
    <g fill="#fff" opacity="0.3">
      <rect x="1005" y="65" width="8" height="12"/><rect x="1018" y="65" width="8" height="12"/><rect x="1031" y="65" width="8" height="12"/>
      <rect x="1005" y="82" width="8" height="12"/><rect x="1018" y="82" width="8" height="12"/><rect x="1031" y="82" width="8" height="12"/>
      <rect x="1005" y="99" width="8" height="12"/><rect x="1018" y="99" width="8" height="12"/><rect x="1031" y="99" width="8" height="12"/>
      <rect x="1005" y="116" width="8" height="12"/><rect x="1018" y="116" width="8" height="12"/><rect x="1031" y="116" width="8" height="12"/>
      <rect x="1005" y="133" width="8" height="12"/><rect x="1018" y="133" width="8" height="12"/><rect x="1031" y="133" width="8" height="12"/>
      <rect x="1005" y="150" width="8" height="12"/><rect x="1018" y="150" width="8" height="12"/><rect x="1031" y="150" width="8" height="12"/>
      <rect x="1005" y="167" width="8" height="12"/><rect x="1018" y="167" width="8" height="12"/><rect x="1031" y="167" width="8" height="12"/>
    </g>

    <rect x="1080" y="75" width="45" height="125"/>
    <g fill="#fff" opacity="0.3">
      <rect x="1085" y="80" width="8" height="10"/><rect x="1097" y="80" width="8" height="10"/><rect x="1109" y="80" width="8" height="10"/>
      <rect x="1085" y="95" width="8" height="10"/><rect x="1097" y="95" width="8" height="10"/><rect x="1109" y="95" width="8" height="10"/>
      <rect x="1085" y="110" width="8" height="10"/><rect x="1097" y="110" width="8" height="10"/><rect x="1109" y="110" width="8" height="10"/>
      <rect x="1085" y="125" width="8" height="10"/><rect x="1097" y="125" width="8" height="10"/><rect x="1109" y="125" width="8" height="10"/>
      <rect x="1085" y="140" width="8" height="10"/><rect x="1097" y="140" width="8" height="10"/><rect x="1109" y="140" width="8" height="10"/>
      <rect x="1085" y="155" width="8" height="10"/><rect x="1097" y="155" width="8" height="10"/><rect x="1109" y="155" width="8" height="10"/>
      <rect x="1085" y="170" width="8" height="10"/><rect x="1097" y="170" width="8" height="10"/><rect x="1109" y="170" width="8" height="10"/>
    </g>

    <!-- Small tower with spire -->
    <rect x="1160" y="90" width="35" height="110"/>
    <polygon points="1160,90 1177,60 1195,90"/>
    <rect x="1175" y="45" width="5" height="20"/>

    <rect x="1220" y="65" width="48" height="135"/>
    <g fill="#fff" opacity="0.3">
      <rect x="1225" y="70" width="8" height="12"/><rect x="1238" y="70" width="8" height="12"/><rect x="1251" y="70" width="8" height="12"/>
      <rect x="1225" y="87" width="8" height="12"/><rect x="1238" y="87" width="8" height="12"/><rect x="1251" y="87" width="8" height="12"/>
      <rect x="1225" y="104" width="8" height="12"/><rect x="1238" y="104" width="8" height="12"/><rect x="1251" y="104" width="8" height="12"/>
      <rect x="1225" y="121" width="8" height="12"/><rect x="1238" y="121" width="8" height="12"/><rect x="1251" y="121" width="8" height="12"/>
      <rect x="1225" y="138" width="8" height="12"/><rect x="1238" y="138" width="8" height="12"/><rect x="1251" y="138" width="8" height="12"/>
      <rect x="1225" y="155" width="8" height="12"/><rect x="1238" y="155" width="8" height="12"/><rect x="1251" y="155" width="8" height="12"/>
      <rect x="1225" y="172" width="8" height="12"/><rect x="1238" y="172" width="8" height="12"/><rect x="1251" y="172" width="8" height="12"/>
    </g>

    <rect x="1300" y="80" width="40" height="120"/>
    <rect x="1360" y="95" width="40" height="105"/>
  </g>
</svg>